<svg xmlns="http://www.w3.org/2000/svg" width="22.112" height="25.422" viewBox="0 0 22.112 25.422">
  <g id="Groupe_38" data-name="Groupe 38" transform="translate(-203.598 -470.951)">
    <path id="Icon_metro-file-picture" data-name="Icon metro-file-picture" d="M17.665,18.3H5.548V15.879L9.183,9.821l4.979,6.059,3.5-2.423Zm0-7.876a1.818,1.818,0,1,1-1.818-1.818A1.818,1.818,0,0,1,17.665,10.427Zm1.625-4.751a17.167,17.167,0,0,0-1.651-1.888,17.171,17.171,0,0,0-1.888-1.651,3.02,3.02,0,0,0-1.721-.8H4.639A1.516,1.516,0,0,0,3.124,2.854V19.212a1.516,1.516,0,0,0,1.515,1.515H18.573a1.516,1.516,0,0,0,1.515-1.515V7.4A3.02,3.02,0,0,0,19.289,5.676ZM16.782,4.645a16.526,16.526,0,0,1,1.374,1.541H15.241V3.271a16.508,16.508,0,0,1,1.541,1.374Zm2.094,14.567a.307.307,0,0,1-.3.3H4.639a.307.307,0,0,1-.3-.3V2.854a.307.307,0,0,1,.3-.3H14.03V6.792a.606.606,0,0,0,.606.606h4.241Z" transform="translate(205.622 475.646)" fill="#fff"/>
    <path id="Icon_ionic-ios-add" data-name="Icon ionic-ios-add" d="M13.85,9.785H10.8V6.732a.506.506,0,0,0-1.012,0V9.785H6.732a.506.506,0,0,0,0,1.012H9.785V13.85a.506.506,0,0,0,1.012,0V10.8H13.85a.506.506,0,1,0,0-1.012Z" transform="translate(197.372 464.725)" fill="#fff"/>
  </g>
</svg>
